<svg width="20" height="20" viewBox="0 0 20 20" fill="none" xmlns="http://www.w3.org/2000/svg">
<path d="M13.7759 5.38934C13.5307 5.14636 13.135 5.14812 12.892 5.39329C12.649 5.63845 12.6508 6.03417 12.896 6.27716L14.3651 7.73325C14.9614 8.3242 15.3704 8.7309 15.6471 9.07551C15.737 9.1875 15.8072 9.28609 15.8617 9.37492L3.33594 9.37492C2.99076 9.37492 2.71094 9.65474 2.71094 9.99992C2.71094 10.3451 2.99076 10.6249 3.33594 10.6249L15.8617 10.6249C15.8072 10.7137 15.737 10.8123 15.6471 10.9243C15.3704 11.2689 14.9614 11.6756 14.3651 12.2666L12.896 13.7227C12.6508 13.9657 12.649 14.3614 12.892 14.6066C13.135 14.8517 13.5307 14.8535 13.7759 14.6105L15.2715 13.1282C15.8348 12.5699 16.2952 12.1136 16.6217 11.707C16.9612 11.2843 17.207 10.8551 17.2727 10.3401C17.2871 10.2271 17.2943 10.1135 17.2943 9.99992C17.2943 9.88631 17.2871 9.77271 17.2727 9.65978C17.207 9.14469 16.9612 8.71557 16.6217 8.2928C16.2952 7.88624 15.8348 7.42995 15.2715 6.87166L13.7759 5.38934Z" fill="#0C0C0C"/>
</svg>
